<?xml version="1.0" encoding="UTF-8"?>
<!DOCTYPE svg PUBLIC "-//W3C//DTD SVG 1.1//EN" "http://www.w3.org/Graphics/SVG/1.1/DTD/svg11.dtd">
<svg xmlns="http://www.w3.org/2000/svg" version="1.1" width="64px" height="64px" style="shape-rendering:geometricPrecision; text-rendering:geometricPrecision; image-rendering:optimizeQuality; fill-rule:evenodd; clip-rule:evenodd" xmlns:xlink="http://www.w3.org/1999/xlink">
<g><path style="opacity:1" fill="#add8e6" d="M -0.5,-0.5 C 20.8333,-0.5 42.1667,-0.5 63.5,-0.5C 63.5,16.5 63.5,33.5 63.5,50.5C 42.0912,50.8215 20.7579,50.4882 -0.5,49.5C -0.5,32.8333 -0.5,16.1667 -0.5,-0.5 Z M 30.5,3.5 C 32.337,3.63945 32.6704,4.30612 31.5,5.5C 30.7025,5.04311 30.3691,4.37644 30.5,3.5 Z M 8.5,8.5 C 9.79426,10.0478 10.4609,12.0478 10.5,14.5C 10.1667,16.5 9.83333,18.5 9.5,20.5C 8.50909,16.5546 8.17575,12.5546 8.5,8.5 Z M 30.5,10.5 C 32.337,10.6395 32.6704,11.3061 31.5,12.5C 30.7025,12.0431 30.3691,11.3764 30.5,10.5 Z M 30.5,17.5 C 32.337,17.6395 32.6704,18.3061 31.5,19.5C 30.7025,19.0431 30.3691,18.3764 30.5,17.5 Z M 18.5,20.5 C 20.337,20.6395 20.6704,21.3061 19.5,22.5C 18.7025,22.0431 18.3691,21.3764 18.5,20.5 Z M 30.5,24.5 C 32.337,24.6395 32.6704,25.3061 31.5,26.5C 30.7025,26.0431 30.3691,25.3764 30.5,24.5 Z M 52.5,30.5 C 53.7943,32.0478 54.4609,34.0478 54.5,36.5C 54.1667,38.5 53.8333,40.5 53.5,42.5C 52.5091,38.5546 52.1758,34.5546 52.5,30.5 Z M 30.5,31.5 C 32.337,31.6395 32.6704,32.3061 31.5,33.5C 30.7025,33.0431 30.3691,32.3764 30.5,31.5 Z M 30.5,38.5 C 32.337,38.6395 32.6704,39.3061 31.5,40.5C 30.7025,40.0431 30.3691,39.3764 30.5,38.5 Z M 30.5,45.5 C 32.337,45.6395 32.6704,46.3061 31.5,47.5C 30.7025,47.0431 30.3691,46.3764 30.5,45.5 Z"/></g>
<g><path style="opacity:0.933" fill="#354843" d="M -0.5,49.5 C 20.7579,50.4882 42.0912,50.8215 63.5,50.5C 63.5,50.8333 63.5,51.1667 63.5,51.5C 42.1667,51.5 20.8333,51.5 -0.5,51.5C -0.5,50.8333 -0.5,50.1667 -0.5,49.5 Z"/></g>
</svg>
