<svg xmlns="http://www.w3.org/2000/svg" xml:space="preserve" width="80" height="80" viewBox="0 0 60 60"><path d="m55.014 45.389-9.553-4.776A2.63 2.63 0 0 1 44 38.248v-3.381c.229-.28.47-.599.719-.951a22.886 22.886 0 0 0 2.954-5.799A3.968 3.968 0 0 0 50 24.5v-4c0-.963-.36-1.896-1-2.625v-5.319c.056-.55.276-3.824-2.092-6.525C44.854 3.688 41.521 2.5 37 2.5s-7.854 1.188-9.908 3.53c-2.368 2.701-2.148 5.976-2.092 6.525v5.319c-.64.729-1 1.662-1 2.625v4c0 1.217.553 2.352 1.497 3.109.916 3.627 2.833 6.36 3.503 7.237v3.309c0 .968-.528 1.856-1.377 2.32l-8.921 4.866a9.016 9.016 0 0 0-4.701 7.92v4.24h46v-4.043a8.976 8.976 0 0 0-4.987-8.068z"/><path d="m17.983 44.025 8.921-4.866c.367-.201.596-.586.596-1.004v-2.814c-.885-1.232-2.446-3.712-3.337-6.91A5.457 5.457 0 0 1 22.5 24.5v-4c0-1.124.352-2.219 1-3.141v-4.733a10.43 10.43 0 0 1 .096-2.395C22.219 9.751 20.687 9.5 19 9.5c-10.389 0-10.994 8.855-11 9v4.579c-.648.706-1 1.521-1 2.33v3.454c0 1.079.483 2.085 1.311 2.765.825 3.11 2.854 5.46 3.644 6.285v2.743c0 .787-.428 1.509-1.171 1.915l-6.653 4.173A7.924 7.924 0 0 0 0 53.703V57.5h12.5v-4.238c0-3.853 2.101-7.392 5.483-9.237z"/></svg>